<svg width="89" height="83" viewBox="0 0 89 83" fill="none" xmlns="http://www.w3.org/2000/svg">
<g filter="url(#filter0_d_2_2)">
<rect x="4.46057" width="80.4162" height="74.0297" rx="20" transform="rotate(0.399827 4.46057 0)" fill="#9A73CC"/>
<rect x="4.46057" width="80.4162" height="74.0297" rx="20" transform="rotate(0.399827 4.46057 0)" fill="#9A73CC" fill-opacity="0.2"/>
</g>
<g filter="url(#filter1_d_2_2)">
<path d="M25.7188 34.1875C25.9271 34.3958 26.1771 34.7917 26.4688 35.375C26.8021 35.9583 26.8229 36.4792 26.5312 36.9375C26.4479 37.1458 25.9688 37.5 25.0938 38C24.2604 38.5 23.2396 39.0833 22.0312 39.75C20.8646 40.375 19.5938 41.0417 18.2188 41.75C16.8438 42.4583 15.5729 43.125 14.4062 43.75C15.5312 44.375 16.7188 45.0625 17.9688 45.8125C19.2188 46.5208 20.3646 47.2083 21.4062 47.875C22.4896 48.5 23.4062 49.0625 24.1562 49.5625C24.9062 50.0625 25.3229 50.3958 25.4062 50.5625C25.6562 51.0625 25.6146 51.5833 25.2812 52.125C24.9479 52.6667 24.6562 53.0417 24.4062 53.25C24.2812 53.375 23.8438 53.3125 23.0938 53.0625C22.3438 52.8125 21.4271 52.4792 20.3438 52.0625C19.2604 51.6042 18.0729 51.1042 16.7812 50.5625C15.5312 49.9792 14.3438 49.4167 13.2188 48.875C12.0938 48.3333 11.1146 47.8333 10.2812 47.375C9.44792 46.9167 8.92708 46.5833 8.71875 46.375C8.42708 46.125 8.21875 45.7292 8.09375 45.1875C8.01042 44.6458 7.96875 44.0833 7.96875 43.5C7.96875 42.9167 8.01042 42.3958 8.09375 41.9375C8.21875 41.4375 8.34375 41.1458 8.46875 41.0625C8.71875 40.8542 9.30208 40.5208 10.2188 40.0625C11.1354 39.6042 12.1979 39.1042 13.4062 38.5625C14.6562 38.0208 15.9688 37.4792 17.3438 36.9375C18.7604 36.3542 20.0521 35.8542 21.2188 35.4375C22.4271 34.9792 23.4479 34.6458 24.2812 34.4375C25.1146 34.1875 25.5938 34.1042 25.7188 34.1875ZM62.2812 34.1875C62.4062 34.1042 62.8646 34.1875 63.6562 34.4375C64.4896 34.6458 65.5104 34.9792 66.7188 35.4375C67.9271 35.8542 69.2188 36.3542 70.5938 36.9375C71.9688 37.4792 73.2812 38.0208 74.5312 38.5625C75.7812 39.1042 76.8438 39.6042 77.7188 40.0625C78.6354 40.5208 79.2188 40.8542 79.4688 41.0625C79.5938 41.1458 79.6979 41.4375 79.7812 41.9375C79.8646 42.3958 79.9062 42.9167 79.9062 43.5C79.9479 44.0833 79.9062 44.6458 79.7812 45.1875C79.6979 45.7292 79.5312 46.125 79.2812 46.375C79.0312 46.5833 78.4896 46.9167 77.6562 47.375C76.8229 47.8333 75.8438 48.3333 74.7188 48.875C73.5938 49.4167 72.3854 49.9792 71.0938 50.5625C69.8438 51.1042 68.6771 51.6042 67.5938 52.0625C66.5104 52.4792 65.5938 52.8125 64.8438 53.0625C64.0938 53.3125 63.6562 53.375 63.5312 53.25C63.2812 53.0417 62.9896 52.6667 62.6562 52.125C62.3646 51.5833 62.3438 51.0625 62.5938 50.5625C62.6771 50.3958 63.0938 50.0625 63.8438 49.5625C64.5938 49.0625 65.4896 48.5 66.5312 47.875C67.6146 47.2083 68.7812 46.5208 70.0312 45.8125C71.2812 45.0625 72.4688 44.375 73.5938 43.75C72.4271 43.125 71.1562 42.4583 69.7812 41.75C68.4062 41.0417 67.1146 40.375 65.9062 39.75C64.6979 39.0833 63.6562 38.5 62.7812 38C61.9479 37.5 61.4896 37.1458 61.4062 36.9375C61.1146 36.4792 61.1146 35.9583 61.4062 35.375C61.7396 34.7917 62.0312 34.3958 62.2812 34.1875Z" fill="#F6DBFF"/>
<path d="M59.4688 16.875C59.5521 17.0417 59.5938 17.625 59.5938 18.625C59.6354 19.625 59.6354 20.8333 59.5938 22.25C59.5938 23.6667 59.5521 25.1875 59.4688 26.8125C59.3854 28.3958 59.2812 29.8958 59.1562 31.3125C59.0729 32.1042 58.9271 33.2917 58.7188 34.875C58.5521 36.4583 58.3438 38.2083 58.0938 40.125C57.8438 42.0417 57.5729 44.0208 57.2812 46.0625C57.0312 48.0625 56.7812 49.9167 56.5312 51.625C56.2812 53.2917 56.0521 54.6875 55.8438 55.8125C55.6771 56.9375 55.5521 57.5417 55.4688 57.625C55.3021 57.75 55.0312 58.0625 54.6562 58.5625C54.2812 59.0208 53.8646 59.5 53.4062 60C52.9896 60.4583 52.5938 60.8333 52.2188 61.125C51.8438 61.4167 51.5938 61.4583 51.4688 61.25C51.3854 60.8333 51.3438 59.5417 51.3438 57.375C51.3438 56.4583 51.3438 55.3125 51.3438 53.9375C51.3854 52.5208 51.4271 50.8125 51.4688 48.8125C51.5521 46.8125 51.6562 44.4792 51.7812 41.8125C51.9062 39.1458 52.0521 36.0625 52.2188 32.5625C51.3854 35.3958 50.6354 37.8958 49.9688 40.0625C49.3438 42.2292 48.7812 44.125 48.2812 45.75C47.8229 47.3333 47.4271 48.6875 47.0938 49.8125C46.7604 50.8958 46.4688 51.7917 46.2188 52.5C45.6771 54.1667 45.3229 55.1458 45.1562 55.4375C44.9896 55.4792 44.7188 55.3542 44.3438 55.0625C44.0104 54.7708 43.6146 54.3542 43.1562 53.8125C42.7396 53.2292 42.3021 52.5417 41.8438 51.75C41.4271 50.9583 41.0729 50.0833 40.7812 49.125C40.4896 48.25 40.1146 47.0833 39.6562 45.625C39.2396 44.375 38.6979 42.75 38.0312 40.75C37.3646 38.7083 36.5521 36.1667 35.5938 33.125C35.8438 36.5417 36.0521 39.5417 36.2188 42.125C36.3854 44.7083 36.5104 46.9583 36.5938 48.875C36.7188 50.7917 36.8021 52.4167 36.8438 53.75C36.9271 55.0417 36.9688 56.125 36.9688 57C37.0104 59 36.9479 60.1458 36.7812 60.4375C36.3646 60.4375 35.9062 60.25 35.4062 59.875C34.9479 59.4583 34.4896 58.9792 34.0312 58.4375C33.6146 57.8542 33.2396 57.2917 32.9062 56.75C32.6146 56.2083 32.4479 55.8125 32.4062 55.5625C32.3646 55.3958 32.2396 54.625 32.0312 53.25C31.8229 51.875 31.5729 50.125 31.2812 48C31.0312 45.8333 30.7396 43.4167 30.4062 40.75C30.1146 38.0417 29.8229 35.2917 29.5312 32.5C29.2812 29.7083 29.0729 27 28.9062 24.375C28.7396 21.7083 28.6562 19.3333 28.6562 17.25C28.6562 16.9167 29.0729 16.4792 29.9062 15.9375C30.7396 15.3542 31.6771 14.8125 32.7188 14.3125C33.8021 13.7708 34.8021 13.3125 35.7188 12.9375C36.6354 12.5208 37.1979 12.3125 37.4062 12.3125C37.5729 12.3125 37.7396 12.7917 37.9062 13.75C38.1146 14.7083 38.3438 15.9167 38.5938 17.375C38.8438 18.8333 39.1146 20.4583 39.4062 22.25C39.6979 24.0417 40.0312 25.75 40.4062 27.375C40.6979 29.0417 41.0521 30.7708 41.4688 32.5625C41.8021 34.1042 42.1771 35.8125 42.5938 37.6875C43.0521 39.5208 43.5521 41.3125 44.0938 43.0625C44.6771 40.5208 45.1979 38.2292 45.6562 36.1875C46.1562 34.1042 46.5938 32.3333 46.9688 30.875C47.4271 29.1667 47.8229 27.6458 48.1562 26.3125C48.9062 23.0625 49.6354 20.5 50.3438 18.625C51.0938 16.75 51.5729 15.6458 51.7812 15.3125C51.9062 15.1458 52.3438 15.1042 53.0938 15.1875C53.8854 15.2708 54.7396 15.4167 55.6562 15.625C56.5729 15.7917 57.4062 16 58.1562 16.25C58.9479 16.5 59.3854 16.7083 59.4688 16.875Z" fill="#FFFDFD"/>
</g>
<defs>
<filter id="filter0_d_2_2" x="0.0830078" y="0.139038" width="88.6527" height="82.3109" filterUnits="userSpaceOnUse" color-interpolation-filters="sRGB">
<feFlood flood-opacity="0" result="BackgroundImageFix"/>
<feColorMatrix in="SourceAlpha" type="matrix" values="0 0 0 0 0 0 0 0 0 0 0 0 0 0 0 0 0 0 127 0" result="hardAlpha"/>
<feOffset dy="4"/>
<feGaussianBlur stdDeviation="2"/>
<feComposite in2="hardAlpha" operator="out"/>
<feColorMatrix type="matrix" values="0 0 0 0 0 0 0 0 0 0 0 0 0 0 0 0 0 0 0.25 0"/>
<feBlend mode="normal" in2="BackgroundImageFix" result="effect1_dropShadow_2_2"/>
<feBlend mode="normal" in="SourceGraphic" in2="effect1_dropShadow_2_2" result="shape"/>
</filter>
<filter id="filter1_d_2_2" x="3.96875" y="12.3125" width="80" height="57.25" filterUnits="userSpaceOnUse" color-interpolation-filters="sRGB">
<feFlood flood-opacity="0" result="BackgroundImageFix"/>
<feColorMatrix in="SourceAlpha" type="matrix" values="0 0 0 0 0 0 0 0 0 0 0 0 0 0 0 0 0 0 127 0" result="hardAlpha"/>
<feOffset dy="4"/>
<feGaussianBlur stdDeviation="2"/>
<feComposite in2="hardAlpha" operator="out"/>
<feColorMatrix type="matrix" values="0 0 0 0 0 0 0 0 0 0 0 0 0 0 0 0 0 0 0.25 0"/>
<feBlend mode="normal" in2="BackgroundImageFix" result="effect1_dropShadow_2_2"/>
<feBlend mode="normal" in="SourceGraphic" in2="effect1_dropShadow_2_2" result="shape"/>
</filter>
</defs>
</svg>
